<svg width="200" height="200" xmlns="http://www.w3.org/2000/svg" preserveAspectRatio="xMidYMid meet" version="1.0">

 <g>
  <title>Layer 1</title>
  <g stroke="null" id="svg_1" fill="#000000" transform="translate(0 242) scale(0.1 -0.1)">
   <path stroke="null" id="svg_2" d="m929.5278,2319.14398c0,-63.58356 2.58376,-72.85616 25.83759,-72.85616c23.25383,0 25.83759,9.2726 25.83759,72.85616c0,63.58356 -2.58376,72.85616 -25.83759,72.85616c-23.25383,0 -25.83759,-9.2726 -25.83759,-72.85616z"/>
   <path stroke="null" id="svg_3" d="m1017.3756,2374.7796c3.87564,-10.59726 1.29188,-26.49315 -3.87564,-37.09041c-6.4594,-10.59726 -5.16752,-25.16849 2.58376,-34.4411c6.4594,-9.2726 9.04316,-26.49315 5.16752,-38.41507c-5.16752,-13.24658 -1.29188,-18.54521 7.75128,-14.57123c9.04316,2.64932 16.79443,27.81781 18.08631,56.96027c1.29188,60.93425 -5.16752,84.77808 -23.25383,84.77808c-7.75128,0 -10.33504,-7.94795 -6.4594,-17.22055z"/>
   <path stroke="null" id="svg_4" d="m1119.43407,2340.3385c-1.29188,-26.49315 -5.16752,-59.60959 -6.4594,-74.18082c-1.29188,-14.57123 6.4594,-27.81781 18.08631,-30.46712c16.79443,-2.64932 19.37819,3.97397 15.50255,30.46712c-5.16752,23.84384 -1.29188,33.11644 14.21067,33.11644c11.62691,0 20.67007,-10.59726 20.67007,-23.84384c0,-13.24658 6.4594,-30.46712 15.50255,-39.73973c19.37819,-19.86986 49.09142,-21.19452 49.09142,-1.32466c0,6.62329 -5.16752,10.59726 -11.62691,6.62329c-6.4594,-3.97397 -14.21067,7.94795 -18.08631,25.16849c-2.58376,18.54521 0,37.09041 5.16752,41.06438c18.08631,10.59726 14.21067,54.31096 -5.16752,62.2589c-11.62691,3.97397 -16.79443,-3.97397 -16.79443,-21.19452c1.29188,-17.22055 -7.75128,-30.46712 -23.25383,-33.11644c-19.37819,-3.97397 -23.25383,1.32466 -18.08631,27.81781c3.87564,23.84384 0,35.76575 -14.21067,39.73973c-15.50255,3.97397 -21.96195,-6.62329 -24.54571,-42.38904z"/>
   <path stroke="null" id="svg_5" d="m742.20529,2339.01384c0,-6.62329 6.4594,-13.24658 12.91879,-13.24658c7.75128,0 12.91879,6.62329 12.91879,13.24658c0,7.94795 -5.16752,13.24658 -12.91879,13.24658c-6.4594,0 -12.91879,-5.29863 -12.91879,-13.24658z"/>
   <path stroke="null" id="svg_6" d="m675.02757,2328.41658c-18.08631,-3.97397 -19.37819,-7.94795 -1.29188,-43.7137c10.33504,-22.51918 20.67007,-54.31096 21.96195,-70.20685c1.29188,-22.51918 7.75128,-29.14247 24.54571,-23.84384c11.62691,2.64932 21.96195,6.62329 21.96195,7.94795c-1.29188,0 -10.33504,31.79178 -23.25383,67.55753c-15.50255,47.68767 -28.42135,64.90822 -43.9239,62.2589z"/>
   <path stroke="null" id="svg_7" d="m1324.84289,2291.32617c-9.04316,-25.16849 -23.25383,-51.66164 -32.29698,-60.93425c-12.91879,-14.57123 -6.4594,-23.84384 29.71323,-49.01233c40.04826,-26.49315 42.63202,-26.49315 23.25383,-3.97397c-23.25383,25.16849 -23.25383,27.81781 2.58376,80.80411c32.29698,63.58356 32.29698,62.2589 10.33504,71.53151c-11.62691,3.97397 -23.25383,-9.2726 -33.58886,-38.41507z"/>
   <path stroke="null" id="svg_8" d="m548.42339,2262.18371c0,-5.29863 6.4594,-17.22055 15.50255,-26.49315c10.33504,-10.59726 10.33504,-19.86986 0,-31.79178c-10.33504,-14.57123 -5.16752,-22.51918 24.54571,-35.76575c41.34014,-18.54521 76.22088,-11.92192 76.22088,14.57123c0,13.24658 -2.58376,13.24658 -10.33504,1.32466c-6.4594,-10.59726 -16.79443,-7.94795 -37.4645,9.2726c-15.50255,11.92192 -24.54571,26.49315 -20.67007,31.79178c9.04316,9.2726 -20.67007,47.68767 -36.17262,47.68767c-6.4594,0 -11.62691,-5.29863 -11.62691,-10.59726z"/>
   <path stroke="null" id="svg_9" d="m761.58348,2259.53439c-3.87564,-6.62329 -2.58376,-13.24658 5.16752,-13.24658c6.4594,0 16.79443,6.62329 20.67007,13.24658c3.87564,7.94795 2.58376,13.24658 -5.16752,13.24658c-6.4594,0 -16.79443,-5.29863 -20.67007,-13.24658z"/>
   <path stroke="null" id="svg_10" d="m1490.20345,2189.32754c-21.96195,-86.10274 -21.96195,-95.37534 0,-95.37534c10.33504,0 20.67007,14.57123 23.25383,31.79178c2.58376,18.54521 11.62691,49.01233 21.96195,67.55753c14.21067,31.79178 14.21067,37.09041 -5.16752,50.33699c-18.08631,11.92192 -24.54571,3.97397 -40.04826,-54.31096z"/>
   <path stroke="null" id="svg_11" d="m487.70506,2231.71658c-11.62691,-11.92192 -6.4594,-29.14247 19.37819,-70.20685c18.08631,-29.14247 34.88074,-55.63562 36.17262,-58.28493c0,-1.32466 10.33504,0 21.96195,5.29863c14.21067,5.29863 16.79443,11.92192 7.75128,22.51918c-7.75128,9.2726 -25.83759,38.41507 -41.34014,66.23288c-21.96195,37.09041 -33.58886,45.03836 -43.9239,34.4411z"/>
   <path stroke="null" id="svg_12" d="m780.96168,2219.79467c-11.62691,-7.94795 -12.91879,-13.24658 -3.87564,-13.24658c7.75128,0 19.37819,6.62329 23.25383,13.24658c10.33504,15.89589 5.16752,15.89589 -19.37819,0z"/>
   <path stroke="null" id="svg_13" d="m1362.3074,2206.54809c0,-6.62329 5.16752,-13.24658 11.62691,-13.24658c7.75128,0 16.79443,6.62329 20.67007,13.24658c3.87564,7.94795 -1.29188,13.24658 -11.62691,13.24658c-11.62691,0 -20.67007,-5.29863 -20.67007,-13.24658z"/>
   <path stroke="null" id="svg_14" d="m1569.0081,2182.70426c0,-13.24658 -6.4594,-30.46712 -14.21067,-38.41507c-18.08631,-18.54521 -25.83759,-94.05068 -10.33504,-104.64794c6.4594,-2.64932 41.34014,14.57123 78.80464,41.06438c37.4645,25.16849 63.30209,46.36301 58.13457,46.36301c-6.4594,0 -31.00511,-14.57123 -56.84269,-33.11644c-25.83759,-17.22055 -50.3833,-30.46712 -52.96705,-27.81781c-2.58376,2.64932 6.4594,29.14247 20.67007,58.28493c23.25383,50.33699 23.25383,52.9863 0,67.55753c-19.37819,11.92192 -23.25383,10.59726 -23.25383,-9.2726z"/>
   <path stroke="null" id="svg_15" d="m389.52222,2157.53576c-3.87564,-2.64932 14.21067,-25.16849 40.04826,-49.01233c47.79954,-46.36301 50.3833,-87.4274 5.16752,-87.4274c-27.12947,0 -80.09652,51.66164 -80.09652,79.47945c0,11.92192 -7.75128,10.59726 -25.83759,-6.62329c-25.83759,-23.84384 -25.83759,-25.16849 -3.87564,-38.41507c12.91879,-6.62329 31.00511,-23.84384 40.04826,-37.09041c23.25383,-33.11644 69.76149,-30.46712 103.35035,6.62329l27.12947,29.14247l-50.3833,54.31096c-27.12947,30.46712 -52.96705,52.9863 -55.55081,49.01233z"/>
   <path stroke="null" id="svg_16" d="m1145.27166,2054.21248c-69.76149,-63.58356 -138.23109,-186.77671 -152.44177,-271.55479c-7.75128,-43.7137 -5.16752,-41.06438 25.83759,22.51918c42.63202,83.45342 122.72854,177.50411 182.15499,215.91917c47.79954,30.46712 56.84269,52.9863 27.12947,78.15479c-14.21067,11.92192 -31.00511,2.64932 -82.68028,-45.03836z"/>
   <path stroke="null" id="svg_17" d="m1678.81784,2002.55084c-51.67518,-39.73973 -52.96705,-41.06438 -32.29698,-76.83014c10.33504,-21.19452 24.54571,-37.09041 31.00511,-37.09041c6.4594,0 3.87564,9.2726 -5.16752,19.86986c-12.91879,15.89589 -12.91879,23.84384 0,39.73973c9.04316,11.92192 24.54571,18.54521 33.58886,14.57123c10.33504,-3.97397 14.21067,0 10.33504,10.59726c-3.87564,9.2726 6.4594,22.51918 21.96195,29.14247c21.96195,10.59726 24.54571,15.89589 10.33504,27.81781c-14.21067,10.59726 -31.00511,3.97397 -69.76149,-27.81781z"/>
   <path stroke="null" id="svg_18" d="m228.0373,1964.13577c-7.75128,-11.92192 5.16752,-27.81781 49.09142,-56.96027c58.13457,-38.41507 62.01021,-39.73973 76.22088,-15.89589c11.62691,18.54521 10.33504,23.84384 -2.58376,23.84384c-9.04316,0 -37.4645,14.57123 -63.30209,33.11644c-34.88074,23.84384 -49.09142,27.81781 -59.42645,15.89589z"/>
   <path stroke="null" id="svg_19" d="m699.57327,1973.40837c-12.91879,-3.97397 -46.50766,-21.19452 -74.929,-37.09041l-51.67518,-30.46712l58.13457,-7.94795c31.00511,-5.29863 80.09652,-21.19452 107.22599,-37.09041c111.10163,-66.23288 201.53318,-105.9726 218.32762,-99.34931c19.37819,7.94795 23.25383,31.79178 7.75128,55.63562c-10.33504,17.22055 -126.60418,71.53151 -152.44177,71.53151c-9.04316,0 -19.37819,5.29863 -23.25383,10.59726c-10.33504,17.22055 73.63712,1.32466 105.93411,-21.19452c15.50255,-10.59726 28.42135,-14.57123 28.42135,-9.2726c0,5.29863 9.04316,2.64932 19.37819,-6.62329c11.62691,-9.2726 24.54571,-13.24658 28.42135,-7.94795c21.96195,21.19452 -55.55081,95.37534 -112.39351,108.62192c-52.96705,11.92192 -134.35546,17.22055 -158.90116,10.59726z"/>
   <path stroke="null" id="svg_20" d="m1769.2494,1968.10974c-3.87564,-6.62329 -1.29188,-13.24658 5.16752,-13.24658c7.75128,0 14.21067,6.62329 14.21067,13.24658c0,7.94795 -2.58376,13.24658 -5.16752,13.24658c-3.87564,0 -10.33504,-5.29863 -14.21067,-13.24658z"/>
   <path stroke="null" id="svg_21" d="m1698.19604,1915.12344c0,-6.62329 9.04316,-13.24658 20.67007,-13.24658c10.33504,0 15.50255,6.62329 11.62691,13.24658c-3.87564,7.94795 -12.91879,13.24658 -20.67007,13.24658c-6.4594,0 -11.62691,-5.29863 -11.62691,-13.24658z"/>
   <path stroke="null" id="svg_22" d="m1153.02294,1905.85084c-40.04826,-6.62329 -105.93411,-64.90822 -94.30719,-83.45342c5.16752,-7.94795 20.67007,-6.62329 42.63202,5.29863c19.37819,9.2726 52.96705,21.19452 73.63712,25.16849c28.42135,6.62329 23.25383,1.32466 -19.37819,-17.22055c-83.97216,-38.41507 -96.89095,-46.36301 -100.76659,-71.53151c-7.75128,-35.76575 45.21578,-25.16849 149.85801,33.11644c54.25893,29.14247 114.97726,54.31096 134.35546,55.63562c20.67007,1.32466 36.17262,3.97397 36.17262,6.62329c0,2.64932 -24.54571,15.89589 -54.25893,29.14247c-52.96705,25.16849 -93.01532,29.14247 -167.94432,17.22055z"/>
   <path stroke="null" id="svg_23" d="m1820.92458,1875.38372c-3.87564,-6.62329 -29.71323,-19.86986 -56.84269,-27.81781c-37.4645,-10.59726 -47.79954,-21.19452 -43.9239,-37.09041c5.16752,-21.19452 10.33504,-21.19452 65.88585,6.62329c33.58886,15.89589 64.59397,26.49315 69.76149,23.84384c12.91879,-7.94795 12.91879,-1.32466 2.58376,26.49315c-9.04316,23.84384 -25.83759,27.81781 -37.4645,7.94795z"/>
   <path stroke="null" id="svg_24" d="m160.85957,1848.89057c0,-6.62329 -3.87564,-19.86986 -7.75128,-30.46712c-3.87564,-10.59726 2.58376,-22.51918 12.91879,-26.49315c12.91879,-5.29863 16.79443,-1.32466 11.62691,10.59726c-5.16752,17.22055 1.29188,17.22055 47.79954,0c29.71323,-10.59726 59.42645,-15.89589 65.88585,-11.92192c19.37819,11.92192 12.91879,31.79178 -10.33504,31.79178c-12.91879,1.32466 -45.21578,9.2726 -71.05337,18.54521c-27.12947,10.59726 -49.09142,13.24658 -49.09142,7.94795z"/>
   <path stroke="null" id="svg_25" d="m1855.80532,1801.2029c-19.37819,-22.51918 -41.34014,-23.84384 -41.34014,-3.97397c0,9.2726 -11.62691,0 -25.83759,-18.54521c-14.21067,-18.54521 -25.83759,-42.38904 -25.83759,-52.9863c0,-26.49315 21.96195,-41.06438 32.29698,-22.51918c3.87564,6.62329 1.29188,13.24658 -5.16752,13.24658c-7.75128,0 -3.87564,10.59726 9.04316,23.84384c11.62691,13.24658 32.29698,21.19452 43.9239,18.54521c12.91879,-2.64932 25.83759,3.97397 31.00511,15.89589c11.62691,30.46712 1.29188,47.68767 -18.08631,26.49315z"/>
   <path stroke="null" id="svg_26" d="m203.49159,1753.51523c-1.29188,-17.22055 3.87564,-23.84384 14.21067,-19.86986c10.33504,3.97397 24.54571,0 32.29698,-7.94795c7.75128,-7.94795 14.21067,-9.2726 14.21067,-1.32466c0,6.62329 -14.21067,21.19452 -29.71323,33.11644c-28.42135,21.19452 -29.71323,21.19452 -31.00511,-3.97397z"/>
   <path stroke="null" id="svg_27" d="m960.53291,1713.7755c-40.04826,-13.24658 -67.17773,-62.2589 -65.88585,-116.56986c1.29188,-45.03836 49.09142,-137.76438 91.72344,-177.50411c32.29698,-30.46712 51.67518,-17.22055 107.22599,70.20685c62.01021,100.67397 43.9239,198.69863 -43.9239,230.49041c-20.67007,7.94795 -23.25383,-2.64932 -23.25383,-96.7c0,-143.06301 -23.25383,-151.01096 -28.42135,-9.2726l-3.87564,111.27123l-33.58886,-11.92192z"/>
   <path stroke="null" id="svg_28" d="m821.00994,1689.93166c-69.76149,-17.22055 -98.18283,-38.41507 -176.98748,-129.81644l-74.929,-86.10274l63.30209,10.59726c108.51787,15.89589 219.61949,87.4274 242.87332,156.30959c11.62691,31.79178 -2.58376,27.81781 -69.76149,-17.22055c-31.00511,-21.19452 -71.05337,-49.01233 -89.13968,-60.93425c-18.08631,-11.92192 -6.4594,3.97397 25.83759,34.4411c32.29698,31.79178 77.51276,64.90822 100.76659,74.18082c21.96195,10.59726 41.34014,21.19452 41.34014,25.16849c0,7.94795 -6.4594,6.62329 -63.30209,-6.62329z"/>
   <path stroke="null" id="svg_29" d="m1149.1473,1689.93166c3.87564,-7.94795 15.50255,-13.24658 24.54571,-13.24658c21.96195,0 153.73365,-107.29726 143.39861,-116.56986c-3.87564,-3.97397 -19.37819,5.29863 -36.17262,19.86986c-31.00511,30.46712 -113.68539,83.45342 -127.89606,83.45342c-5.16752,0 -6.4594,-10.59726 -1.29188,-22.51918c23.25383,-68.88219 134.35546,-140.4137 242.87332,-156.30959l63.30209,-10.59726l-74.929,87.4274c-41.34014,47.68767 -94.30719,95.37534 -116.26914,105.9726c-52.96705,25.16849 -127.89606,39.73973 -117.56102,22.51918z"/>
   <path stroke="null" id="svg_30" d="m1879.05915,1670.0618c-16.79443,-18.54521 -43.9239,-33.11644 -62.01021,-33.11644c-23.25383,0 -29.71323,-5.29863 -23.25383,-21.19452c3.87564,-11.92192 7.75128,-22.51918 7.75128,-26.49315c0,-9.2726 65.88585,21.19452 96.89095,43.7137c18.08631,13.24658 32.29698,30.46712 32.29698,39.73973c0,30.46712 -21.96195,29.14247 -51.67518,-2.64932z"/>
   <path stroke="null" id="svg_31" d="m145.35702,1680.65906c7.75128,-2.64932 23.25383,-2.64932 32.29698,0c7.75128,3.97397 1.29188,6.62329 -16.79443,6.62329c-18.08631,0 -24.54571,-2.64932 -15.50255,-6.62329z"/>
   <path stroke="null" id="svg_32" d="m199.61595,1666.08783c0,-14.57123 -90.43156,-43.7137 -105.93411,-34.4411c-5.16752,3.97397 -10.33504,-6.62329 -10.33504,-23.84384c0,-22.51918 7.75128,-31.79178 25.83759,-33.11644c14.21067,-1.32466 23.25383,2.64932 19.37819,7.94795c-2.58376,6.62329 19.37819,18.54521 50.3833,27.81781c36.17262,10.59726 59.42645,25.16849 63.30209,41.06438c5.16752,18.54521 0,25.16849 -18.08631,25.16849c-12.91879,0 -24.54571,-5.29863 -24.54571,-10.59726z"/>
   <path stroke="null" id="svg_33" d="m206.07535,1557.46591c-3.87564,-6.62329 -1.29188,-13.24658 5.16752,-13.24658c7.75128,0 14.21067,6.62329 14.21067,13.24658c0,7.94795 -2.58376,13.24658 -5.16752,13.24658c-3.87564,0 -10.33504,-5.29863 -14.21067,-13.24658z"/>
   <path stroke="null" id="svg_34" d="m791.29671,1523.02482c-54.25893,-35.76575 -62.01021,-68.88219 -34.88074,-152.33561c27.12947,-82.12877 38.75638,-84.77808 105.93411,-25.16849c72.34525,66.23288 82.68028,94.05068 50.3833,143.06301c-12.91879,19.86986 -27.12947,43.7137 -31.00511,54.31096c-2.58376,10.59726 -15.50255,-10.59726 -28.42135,-46.36301c-34.88074,-94.05068 -47.79954,-100.67397 -28.42135,-13.24658c9.04316,41.06438 16.79443,74.18082 15.50255,72.85616c0,0 -23.25383,-14.57123 -49.09142,-33.11644z"/>
   <path stroke="null" id="svg_35" d="m1143.97978,1544.21934c-1.29188,-10.59726 -12.91879,-34.4411 -27.12947,-52.9863c-34.88074,-46.36301 -32.29698,-58.28493 21.96195,-119.21918c77.51276,-88.75205 90.43156,-91.40137 121.43666,-19.86986c37.4645,87.4274 29.71323,135.11507 -31.00511,174.85479l-50.3833,31.79178l10.33504,-30.46712c19.37819,-64.90822 28.42135,-116.56986 16.79443,-108.62192c-6.4594,3.97397 -11.62691,14.57123 -12.91879,22.51918c-1.29188,26.49315 -47.79954,123.19315 -49.09142,101.99863z"/>
   <path stroke="null" id="svg_36" d="m341.72269,1463.41523c0,-6.62329 5.16752,-10.59726 11.62691,-5.29863c23.25383,13.24658 29.71323,-21.19452 9.04316,-45.03836c-29.71323,-33.11644 -25.83759,-41.06438 15.50255,-39.73973c20.67007,1.32466 25.83759,3.97397 12.91879,7.94795c-20.67007,5.29863 -20.67007,7.94795 -2.58376,37.09041c11.62691,17.22055 16.79443,38.41507 11.62691,46.36301c-10.33504,17.22055 -58.13457,17.22055 -58.13457,-1.32466z"/>
   <path stroke="null" id="svg_37" d="m437.32176,1459.44126c-14.21067,-37.09041 0,-80.80411 27.12947,-80.80411c20.67007,0 25.83759,9.2726 25.83759,46.36301c0,33.11644 -6.4594,47.68767 -23.25383,50.33699c-11.62691,2.64932 -25.83759,-3.97397 -29.71323,-15.89589zm46.50766,-34.4411c0,-13.24658 -6.4594,-29.14247 -12.91879,-33.11644c-16.79443,-10.59726 -31.00511,26.49315 -20.67007,54.31096c10.33504,26.49315 33.58886,11.92192 33.58886,-21.19452z"/>
   <path stroke="null" id="svg_38" d="m662.10877,1468.71386c-28.42135,-7.94795 -36.17262,-33.11644 -47.79954,-145.71233c-10.33504,-104.64794 -3.87564,-112.59589 50.3833,-74.18082c78.80464,52.9863 87.8478,68.88219 73.63712,116.56986c-6.4594,25.16849 -18.08631,42.38904 -23.25383,38.41507c-6.4594,-3.97397 -7.75128,11.92192 -3.87564,34.4411c9.04316,41.06438 2.58376,45.03836 -49.09142,30.46712z"/>
   <path stroke="null" id="svg_39" d="m1315.79974,1438.24674c3.87564,-22.51918 2.58376,-38.41507 -3.87564,-34.4411c-5.16752,3.97397 -16.79443,-13.24658 -23.25383,-38.41507c-14.21067,-47.68767 -5.16752,-63.58356 73.63712,-116.56986c54.25893,-38.41507 60.71833,-30.46712 50.3833,74.18082c-11.62691,117.89452 -18.08631,136.43972 -54.25893,147.03698c-46.50766,13.24658 -51.67518,9.2726 -42.63202,-31.79178z"/>
   <path stroke="null" id="svg_40" d="m1536.71111,1464.73989c-3.87564,-7.94795 1.29188,-9.2726 11.62691,-5.29863c27.12947,10.59726 27.12947,-25.16849 1.29188,-47.68767c-29.71323,-25.16849 -23.25383,-39.73973 16.79443,-38.41507c20.67007,1.32466 25.83759,3.97397 12.91879,7.94795c-20.67007,5.29863 -20.67007,7.94795 -2.58376,37.09041c11.62691,17.22055 16.79443,38.41507 11.62691,46.36301c-10.33504,17.22055 -41.34014,17.22055 -51.67518,0z"/>
   <path stroke="null" id="svg_41" d="m1627.14267,1464.73989c-3.87564,-7.94795 1.29188,-9.2726 11.62691,-5.29863c27.12947,10.59726 27.12947,-25.16849 1.29188,-47.68767c-29.71323,-25.16849 -23.25383,-39.73973 16.79443,-38.41507c20.67007,1.32466 25.83759,3.97397 12.91879,7.94795c-20.67007,5.29863 -20.67007,7.94795 -2.58376,37.09041c11.62691,17.22055 16.79443,38.41507 11.62691,46.36301c-10.33504,17.22055 -41.34014,17.22055 -51.67518,0z"/>
   <path stroke="null" id="svg_42" d="m94.97372,1402.48099c-15.50255,-43.7137 -6.4594,-105.9726 21.96195,-147.03698c27.12947,-41.06438 40.04826,-35.76575 34.88074,14.57123l-3.87564,42.38904l14.21067,-37.09041c18.08631,-46.36301 37.4645,-34.4411 37.4645,22.51918c0,45.03836 -45.21578,127.16712 -73.63712,137.76438c-9.04316,2.64932 -23.25383,-11.92192 -31.00511,-33.11644z"/>
   <path stroke="null" id="svg_43" d="m1868.72411,1407.77962c-32.29698,-34.4411 -50.3833,-113.92055 -34.88074,-151.01096c7.75128,-21.19452 11.62691,-18.54521 28.42135,15.89589l18.08631,39.73973l-6.4594,-43.7137c-10.33504,-59.60959 16.79443,-50.33699 49.09142,15.89589c19.37819,39.73973 21.96195,60.93425 12.91879,98.02466c-14.21067,58.28493 -31.00511,64.90822 -67.17773,25.16849z"/>
   <path stroke="null" id="svg_44" d="m925.65217,1385.26044c-15.50255,-21.19452 -28.42135,-51.66164 -28.42135,-66.23288c0,-42.38904 46.50766,-125.84246 82.68028,-151.01096c31.00511,-19.86986 36.17262,-19.86986 67.17773,0c37.4645,26.49315 82.68028,109.94657 82.68028,153.66027c-1.29188,17.22055 -15.50255,47.68767 -32.29698,70.20685l-32.29698,39.73973l6.4594,-72.85616l6.4594,-72.85616l-14.21067,56.96027c-11.62691,47.68767 -16.79443,54.31096 -32.29698,41.06438c-14.21067,-11.92192 -21.96195,-11.92192 -37.4645,1.32466c-15.50255,13.24658 -19.37819,10.59726 -24.54571,-15.89589c-16.79443,-75.50548 -19.37819,-78.15479 -14.21067,-13.24658c2.58376,37.09041 3.87564,68.88219 1.29188,68.88219c-1.29188,0 -15.50255,-17.22055 -31.00511,-39.73973z"/>
   <path stroke="null" id="svg_45" d="m850.72316,1304.45633c-7.75128,-10.59726 -18.08631,-46.36301 -21.96195,-80.80411c-6.4594,-49.01233 -2.58376,-68.88219 20.67007,-104.64794c38.75638,-58.28493 51.67518,-59.60959 80.09652,-7.94795c23.25383,45.03836 23.25383,45.03836 -11.62691,96.7c-31.00511,47.68767 -33.58886,49.01233 -36.17262,18.54521c0,-18.54521 -5.16752,-3.97397 -9.04316,31.79178c-6.4594,51.66164 -10.33504,60.93425 -21.96195,46.36301z"/>
   <path stroke="null" id="svg_46" d="m1154.31482,1259.41798c-1.29188,-37.09041 -5.16752,-51.66164 -7.75128,-34.4411c-5.16752,29.14247 -7.75128,27.81781 -38.75638,-18.54521c-33.58886,-50.33699 -33.58886,-50.33699 -10.33504,-95.37534c28.42135,-51.66164 41.34014,-50.33699 80.09652,7.94795c23.25383,35.76575 27.12947,55.63562 20.67007,104.64794c-3.87564,34.4411 -15.50255,71.53151 -24.54571,82.12877c-15.50255,15.89589 -18.08631,9.2726 -19.37819,-46.36301z"/>
   <path stroke="null" id="svg_47" d="m748.66469,1288.56044c-2.58376,-9.2726 -11.62691,-42.38904 -18.08631,-75.50548l-12.91879,-59.60959l2.58376,56.96027c3.87564,63.58356 -1.29188,67.55753 -40.04826,25.16849c-24.54571,-26.49315 -27.12947,-41.06438 -20.67007,-92.72603c5.16752,-34.4411 15.50255,-72.85616 24.54571,-84.77808c15.50255,-22.51918 18.08631,-22.51918 46.50766,2.64932c31.00511,29.14247 68.46961,108.62192 81.3884,172.20548c6.4594,33.11644 2.58376,42.38904 -24.54571,55.63562c-25.83759,11.92192 -34.88074,11.92192 -38.75638,0z"/>
   <path stroke="null" id="svg_48" d="m1246.03825,1285.91113c-9.04316,-10.59726 -21.96195,-15.89589 -28.42135,-11.92192c-38.75638,25.16849 34.88074,-172.20548 78.80464,-213.26986c28.42135,-25.16849 31.00511,-25.16849 46.50766,-2.64932c9.04316,11.92192 19.37819,50.33699 24.54571,84.77808c7.75128,62.2589 -1.29188,86.10274 -42.63202,109.94657c-18.08631,9.2726 -20.67007,2.64932 -18.08631,-43.7137c2.58376,-54.31096 2.58376,-54.31096 -12.91879,13.24658c-18.08631,80.80411 -25.83759,91.40137 -47.79954,63.58356z"/>
   <path stroke="null" id="svg_49" d="m228.0373,1275.31387c-24.54571,-29.14247 -40.04826,-84.77808 -32.29698,-113.92055c6.4594,-26.49315 7.75128,-26.49315 24.54571,-5.29863c15.50255,22.51918 16.79443,21.19452 9.04316,-5.29863c-10.33504,-43.7137 15.50255,-37.09041 34.88074,7.94795c15.50255,38.41507 7.75128,113.92055 -12.91879,127.16712c-5.16752,3.97397 -15.50255,-1.32466 -23.25383,-10.59726z"/>
   <path stroke="null" id="svg_50" d="m1762.79,1259.41798c-16.79443,-45.03836 -16.79443,-63.58356 2.58376,-105.9726c18.08631,-41.06438 41.34014,-43.7137 32.29698,-2.64932c-7.75128,26.49315 -6.4594,27.81781 9.04316,5.29863c16.79443,-22.51918 18.08631,-22.51918 23.25383,0c7.75128,33.11644 -11.62691,103.32329 -34.88074,123.19315c-15.50255,13.24658 -20.67007,10.59726 -32.29698,-19.86986z"/>
   <path stroke="null" id="svg_51" d="m76.88741,1190.53579c10.33504,-43.7137 54.25893,-96.7 80.09652,-96.7c14.21067,0 14.21067,5.29863 2.58376,30.46712c-14.21067,26.49315 -14.21067,27.81781 5.16752,10.59726c19.37819,-15.89589 21.96195,-14.57123 21.96195,3.97397c0,31.79178 -58.13457,87.4274 -91.72344,87.4274c-23.25383,0 -25.83759,-5.29863 -18.08631,-35.76575z"/>
   <path stroke="null" id="svg_52" d="m1872.59975,1193.1851c-37.4645,-37.09041 -46.50766,-88.75205 -10.33504,-58.28493c19.37819,17.22055 19.37819,15.89589 5.16752,-10.59726c-11.62691,-25.16849 -11.62691,-30.46712 2.58376,-30.46712c25.83759,0 69.76149,52.9863 80.09652,96.7c7.75128,30.46712 5.16752,35.76575 -18.08631,35.76575c-15.50255,0 -42.63202,-14.57123 -59.42645,-33.11644z"/>
   <path stroke="null" id="svg_53" d="m951.48975,1115.03031c-11.62691,-26.49315 -9.04316,-42.38904 14.21067,-90.07671c15.50255,-30.46712 37.4645,-56.96027 47.79954,-56.96027c10.33504,0 32.29698,26.49315 47.79954,56.96027c23.25383,47.68767 25.83759,63.58356 14.21067,90.07671c-19.37819,43.7137 -41.34014,33.11644 -50.3833,-22.51918c-6.4594,-35.76575 -9.04316,-38.41507 -10.33504,-10.59726c-1.29188,31.79178 -21.96195,64.90822 -40.04826,64.90822c-5.16752,0 -15.50255,-14.57123 -23.25383,-31.79178z"/>
   <path stroke="null" id="svg_54" d="m775.79416,1087.2125c-11.62691,-17.22055 -20.67007,-41.06438 -20.67007,-50.33699c0,-30.46712 27.12947,-101.99863 38.75638,-101.99863c6.4594,0 28.42135,25.16849 49.09142,56.96027l38.75638,55.63562l-29.71323,35.76575l-29.71323,34.4411l-12.91879,-54.31096l-14.21067,-55.63562l2.58376,56.96027c2.58376,30.46712 2.58376,55.63562 1.29188,55.63562c-1.29188,0 -11.62691,-14.57123 -23.25383,-33.11644z"/>
   <path stroke="null" id="svg_55" d="m1173.69301,1081.91387l-28.42135,-34.4411l38.75638,-55.63562c20.67007,-31.79178 42.63202,-56.96027 49.09142,-56.96027c11.62691,0 38.75638,72.85616 38.75638,104.64794c0,11.92192 -11.62691,35.76575 -24.54571,52.9863l-24.54571,33.11644l5.16752,-66.23288l5.16752,-64.90822l-16.79443,60.93425l-15.50255,60.93425l-27.12947,-34.4411z"/>
   <path stroke="null" id="svg_56" d="m199.61595,1087.2125c0,-13.24658 67.17773,-144.38767 93.01532,-181.47808c14.21067,-21.19452 31.00511,-37.09041 37.4645,-37.09041c7.75128,0 -3.87564,25.16849 -24.54571,56.96027c-20.67007,30.46712 -50.3833,80.80411 -65.88585,112.59589c-24.54571,50.33699 -40.04826,68.88219 -40.04826,49.01233z"/>
   <path stroke="null" id="svg_57" d="m1787.33571,1038.20017c-15.50255,-30.46712 -45.21578,-82.12877 -65.88585,-112.59589c-20.67007,-31.79178 -32.29698,-56.96027 -24.54571,-56.96027c23.25383,0 140.81485,205.32191 125.3123,221.2178c-2.58376,3.97397 -19.37819,-19.86986 -34.88074,-51.66164z"/>
   <path stroke="null" id="svg_58" d="m916.60901,1040.84949c-5.16752,-9.2726 -18.08631,-41.06438 -28.42135,-71.53151l-16.79443,-54.31096l6.4594,52.9863l7.75128,52.9863l-25.83759,-39.73973c-29.71323,-43.7137 -34.88074,-99.34931 -12.91879,-140.4137c12.91879,-25.16849 15.50255,-26.49315 37.4645,-5.29863c12.91879,11.92192 36.17262,51.66164 50.3833,87.4274c24.54571,58.28493 25.83759,68.88219 10.33504,99.34931c-12.91879,26.49315 -20.67007,30.46712 -28.42135,18.54521z"/>
   <path stroke="null" id="svg_59" d="m1080.67769,1020.97962c-12.91879,-29.14247 -11.62691,-45.03836 11.62691,-99.34931c14.21067,-35.76575 37.4645,-74.18082 51.67518,-87.4274c23.25383,-21.19452 24.54571,-19.86986 37.4645,13.24658c19.37819,52.9863 15.50255,90.07671 -14.21067,133.79041l-25.83759,39.73973l6.4594,-52.9863l7.75128,-52.9863l-19.37819,58.28493c-25.83759,78.15479 -37.4645,88.75205 -55.55081,47.68767z"/>
   <path stroke="null" id="svg_60" d="m950.19787,915.00702c-14.21067,-42.38904 -12.91879,-51.66164 14.21067,-103.32329c16.79443,-30.46712 38.75638,-55.63562 49.09142,-55.63562c10.33504,0 32.29698,27.81781 49.09142,62.2589c28.42135,58.28493 29.71323,63.58356 9.04316,103.32329c-25.83759,51.66164 -45.21578,39.73973 -47.79954,-30.46712l-1.29188,-55.63562l-5.16752,52.9863c-5.16752,46.36301 -20.67007,71.53151 -42.63202,72.85616c-5.16752,0 -15.50255,-21.19452 -24.54571,-46.36301z"/>
   <path stroke="null" id="svg_61" d="m344.30644,834.20292c5.16752,-27.81781 28.42135,-30.46712 33.58886,-1.32466c2.58376,13.24658 -3.87564,22.51918 -16.79443,22.51918c-12.91879,0 -19.37819,-7.94795 -16.79443,-21.19452z"/>
   <path stroke="null" id="svg_62" d="m1641.35334,843.47552c-9.04316,-14.57123 23.25383,-43.7137 34.88074,-31.79178c5.16752,3.97397 9.04316,15.89589 9.04316,26.49315c0,19.86986 -33.58886,23.84384 -43.9239,5.29863z"/>
   <path stroke="null" id="svg_63" d="m1559.96494,777.24264c7.75128,-38.41507 6.4594,-41.06438 -18.08631,-26.49315c-14.21067,7.94795 -29.71323,10.59726 -34.88074,6.62329c-7.75128,-9.2726 -9.04316,-9.2726 54.25893,-46.36301c56.84269,-33.11644 71.05337,-29.14247 41.34014,14.57123c-11.62691,15.89589 -20.67007,39.73973 -20.67007,52.9863c0,11.92192 -6.4594,26.49315 -15.50255,31.79178c-10.33504,6.62329 -11.62691,-2.64932 -6.4594,-33.11644z"/>
   <path stroke="null" id="svg_64" d="m420.52733,754.72347c-32.29698,-42.38904 -33.58886,-50.33699 -6.4594,-76.83014c29.71323,-30.46712 51.67518,-25.16849 24.54571,5.29863c-21.96195,25.16849 -21.96195,27.81781 0,52.9863c28.42135,33.11644 52.96705,33.11644 69.76149,3.97397c11.62691,-19.86986 12.91879,-19.86986 14.21067,-2.64932c1.29188,56.96027 -63.30209,67.55753 -102.05847,17.22055z"/>
   <path stroke="null" id="svg_65" d="m1434.65264,655.37415l20.67007,-42.38904l-46.50766,29.14247c-25.83759,15.89589 -51.67518,26.49315 -58.13457,21.19452c-14.21067,-7.94795 34.88074,-125.84246 52.96705,-125.84246c14.21067,0 12.91879,9.2726 -9.04316,52.9863c-23.25383,47.68767 -18.08631,49.01233 31.00511,11.92192c54.25893,-41.06438 71.05337,-22.51918 40.04826,42.38904c-14.21067,27.81781 -32.29698,51.66164 -38.75638,51.66164c-7.75128,0 -3.87564,-18.54521 7.75128,-41.06438z"/>
   <path stroke="null" id="svg_66" d="m569.09346,654.0495c-11.62691,-15.89589 -20.67007,-37.09041 -20.67007,-45.03836c0,-19.86986 42.63202,-58.28493 67.17773,-58.28493c25.83759,0 62.01021,42.38904 62.01021,74.18082c0,59.60959 -74.929,79.47945 -108.51787,29.14247zm76.22088,1.32466c16.79443,-26.49315 -5.16752,-78.15479 -33.58886,-78.15479c-32.29698,0 -43.9239,29.14247 -24.54571,64.90822c15.50255,30.46712 45.21578,37.09041 58.13457,13.24658z"/>
   <path stroke="null" id="svg_67" d="m758.99973,557.3495c-7.75128,-33.11644 -9.04316,-63.58356 -3.87564,-66.23288c11.62691,-7.94795 25.83759,25.16849 25.83759,60.93425c0,13.24658 6.4594,25.16849 12.91879,25.16849c7.75128,0 12.91879,-19.86986 12.91879,-45.03836c0,-63.58356 18.08631,-68.88219 51.67518,-14.57123c31.00511,51.66164 43.9239,59.60959 33.58886,19.86986c-3.87564,-14.57123 -11.62691,-38.41507 -15.50255,-52.9863c-3.87564,-14.57123 -1.29188,-26.49315 6.4594,-26.49315c6.4594,0 15.50255,19.86986 20.67007,43.7137c5.16752,22.51918 11.62691,52.9863 14.21067,66.23288c10.33504,35.76575 -38.75638,27.81781 -59.42645,-10.59726c-24.54571,-46.36301 -38.75638,-41.06438 -38.75638,13.24658c0,35.76575 -5.16752,46.36301 -23.25383,46.36301c-18.08631,0 -27.12947,-15.89589 -37.4645,-59.60959z"/>
   <path stroke="null" id="svg_68" d="m1194.36308,594.43991c0,-13.24658 -3.87564,-46.36301 -7.75128,-72.85616c-6.4594,-33.11644 -3.87564,-50.33699 6.4594,-50.33699c7.75128,0 14.21067,7.94795 14.21067,18.54521c0,23.84384 45.21578,35.76575 63.30209,17.22055c29.71323,-30.46712 24.54571,0 -9.04316,54.31096c-36.17262,56.96027 -67.17773,72.85616 -67.17773,33.11644zm43.9239,-37.09041c3.87564,-11.92192 0,-19.86986 -11.62691,-19.86986c-10.33504,0 -19.37819,9.2726 -19.37819,19.86986c0,10.59726 5.16752,19.86986 11.62691,19.86986c6.4594,0 14.21067,-9.2726 19.37819,-19.86986z"/>
   <path stroke="null" id="svg_69" d="m1013.49996,525.55772c0,-37.09041 6.4594,-67.55753 12.91879,-67.55753c7.75128,0 12.91879,10.59726 12.91879,25.16849c0,13.24658 11.62691,27.81781 27.12947,31.79178c41.34014,11.92192 28.42135,67.55753 -16.79443,72.85616c-34.88074,3.97397 -36.17262,2.64932 -36.17262,-62.2589zm51.67518,17.22055c0,-21.19452 -20.67007,-25.16849 -32.29698,-5.29863c-10.33504,17.22055 5.16752,42.38904 20.67007,33.11644c6.4594,-5.29863 11.62691,-17.22055 11.62691,-27.81781z"/>
  </g>
 </g>
</svg>